<svg width="1084" height="827" viewBox="0 0 1084 827" fill="none" xmlns="http://www.w3.org/2000/svg">
<g clip-path="url(#clip0_6_2)">
<path d="M1026.19 685.49C1015.85 671.01 1021.19 648.14 1021.19 648.14C1021.19 648.14 1018.13 547.53 1002.04 523.9C1002.04 523.9 979.04 469.02 975.22 466.73C971.4 464.44 948.41 448.44 950.7 439.67C950.7 439.67 947.23 440.86 942.3 442.67C942.17 442.34 942.05 442.01 941.92 441.67C940.5 437.76 938.92 433.16 937.42 428.47C937.578 428.388 937.723 428.284 937.85 428.16C937.964 428.412 938.094 428.655 938.24 428.89C939.79 431.25 942.72 432.34 945.54 432.63C946.94 432.852 948.374 432.664 949.67 432.09C950.593 431.589 951.337 430.813 951.8 429.87C951.62 429.95 951.43 430 951.24 430.07C952.33 428.375 952.829 426.368 952.66 424.36C952.492 421.501 951.669 418.719 950.254 416.229C948.839 413.739 946.87 411.607 944.5 410C945.454 409.657 946.326 409.119 947.06 408.42L947.45 408.69C947.789 408.334 948.097 407.949 948.37 407.54C948.071 407.726 947.76 407.893 947.44 408.04C948.316 407.122 948.96 406.007 949.316 404.789C949.673 403.571 949.733 402.286 949.49 401.04C949.12 402.29 947.63 402.76 946.35 403.04C945.6 403.2 944.94 403.33 944.35 403.43C945.908 400.477 947.194 397.387 948.19 394.2C950.07 387.41 949.07 380.2 947.48 373.34C945.33 364.09 941.79 354.57 934.21 348.54C930.777 346.029 927.057 343.934 923.13 342.3C919.579 340.513 915.857 339.089 912.02 338.05C908.12 337.14 904.02 337.05 900.1 336.52C892.38 335.52 884.91 332.89 877.1 332.46C869.29 332.03 860.64 334.37 856.65 340.83C855.377 342.77 854.78 345.076 854.95 347.39C854.963 347.565 854.986 347.738 855.02 347.91C855.02 347.91 855.02 347.91 855.02 347.96C855.44 352.03 858.83 355.37 862.71 357.02C863.362 357.292 864.03 357.526 864.71 357.72C858.787 362.712 854.208 369.107 851.392 376.324C848.577 383.54 847.614 391.347 848.591 399.031C849.569 406.715 852.456 414.032 856.988 420.313C861.521 426.595 867.555 431.641 874.54 434.99C875.01 435.99 875.54 436.93 875.99 437.99C881.99 450.39 889.61 467.49 892.05 479.24C892.05 479.45 892.12 479.65 892.16 479.85C891.93 480.42 863.33 531.42 867.38 534.42L866.2 535.7C858.59 544.04 850.71 553.7 851.12 557.59C851.12 557.59 848.65 556.59 844.82 554.85L845.08 552.06L843.19 552.17V552.06L839.11 552.29C825.7 546.18 805.35 536.29 801.31 530.75C796.62 524.32 773.05 506.75 762.31 498.84V465.02H722.11L711.18 471.96L722.12 465.02H586.47L577.32 459.72L574.37 458C574.505 457.233 574.505 456.447 574.37 455.68C574.37 455.68 527.82 411.68 525.52 403.09C525.52 403.09 520.84 396.76 515.52 388.77L580.67 393.37C577.85 391.72 576.67 388.37 576.39 384.42H605.57C605.57 384.42 672.23 341.35 668.01 327.63C663.79 313.91 593.31 364.63 593.31 364.63H579.58C580.2 362.63 580.66 361.39 580.66 361.39C580.66 361.39 545.6 360.82 543.93 358.39C542.26 355.96 524.93 351.65 524.93 351.65L533.82 310.89C537.02 305.99 543.21 296.28 545.91 290.48C546.99 288.16 547.28 283.48 547.14 277.99V277.9C557.87 268.78 553.42 232.9 553.4 232.72C558.91 225.482 565.441 219.082 572.79 213.72C573.44 213.27 574.1 212.83 574.79 212.4C581.672 215.885 589.232 217.826 596.942 218.087C604.652 218.348 612.326 216.922 619.428 213.91C626.53 210.898 632.889 206.372 638.06 200.648C643.232 194.924 647.092 188.14 649.37 180.77C649.58 180.08 649.78 179.38 649.96 178.68C650.49 178.88 651.01 179.1 651.53 179.29C652.224 179.546 652.952 179.697 653.69 179.74C654.253 179.828 654.829 179.763 655.357 179.55C655.885 179.336 656.346 178.984 656.69 178.53C657.41 177.43 657.09 176.03 657.04 174.7H656.99C656.99 174.49 656.99 174.27 656.99 174.07C657.074 172.893 657.51 171.767 658.24 170.84V170.91C659.201 169.657 660.427 168.633 661.83 167.91C664.24 166.62 666.95 165.91 669.27 164.46C671.184 163.172 672.786 161.471 673.958 159.483C675.129 157.494 675.841 155.269 676.04 152.97L675.98 153.09C676.04 152.52 676.08 151.95 676.09 151.38C676.011 146.986 674.618 142.715 672.09 139.12C668.73 134.12 665.28 135.72 660.85 133.12C658.28 131.63 657.5 128.62 656.01 126.21C653.417 122.175 649.978 118.753 645.93 116.18C639.93 112.18 633.07 109.6 626.81 105.99C618.21 100.99 610.66 94.16 601.36 90.69C596.522 89.0601 591.534 87.9145 586.47 87.27C583.6 86.81 580.64 86.35 577.81 86.98C573.93 87.85 570.81 90.63 567.32 92.51C558.93 97.03 548.18 96.43 540.56 102.14C532.66 108.05 530.56 118.75 528.98 128.45C526.27 145.04 523.24 162.06 514.44 176.45C513.924 177.09 513.667 177.9 513.72 178.72C513.933 179.365 514.347 179.925 514.9 180.32C516.067 181.336 517.296 182.277 518.58 183.14H517.45C514.711 181.457 512.349 179.227 510.51 176.59C509.957 175.81 509.239 175.16 508.407 174.688C507.576 174.215 506.65 173.93 505.697 173.854C504.743 173.778 503.785 173.912 502.888 174.246C501.992 174.581 501.18 175.108 500.51 175.79C500.4 175.91 500.28 176.04 500.19 176.16C498.46 178.45 430.08 203.64 415.72 218.16C401.58 232.5 386.32 253.22 385.85 253.87C385.85 253.87 384.9 254.87 383.2 256.71C376.01 264.38 355.14 285.98 335.02 301.16C334.02 301.91 333.02 302.64 332.02 303.35L331.65 303.6C326.177 307.346 320.501 310.788 314.65 313.91C314.24 314.09 313.83 314.3 313.42 314.47C312.914 314.685 312.426 314.939 311.96 315.23L311.84 315.29C308.19 316.97 304.95 318.02 303.09 317.6C296.77 316.17 252.53 368.19 248.5 391.06C244.47 413.93 239.88 415.06 239.88 415.06C239.88 415.06 232.41 436.21 233.56 440.21C234.41 443.16 228.39 454.21 226.77 465.04C202.53 465.21 110.14 466.24 29.92 471.84C26.7381 478.435 23.9531 485.213 21.58 492.14C21.36 492.76 21.17 493.38 20.96 494.01C19.5572 498.346 18.3955 502.756 17.48 507.22C15.0051 518.84 14.7844 530.827 16.83 542.53C20.35 562.12 30.74 579.72 40.93 596.85C46.93 606.92 52.93 617.02 59.16 627C60.16 628.62 61.16 630.23 62.22 631.85C65.28 636.7 68.37 641.53 71.55 646.29L72.79 648.14L73.4 649.03C73.9 649.77 74.4 650.51 74.89 651.24C81.68 661.16 88.79 670.84 96.41 680.08L101.16 685.72C106.43 691.83 111.94 697.72 117.74 703.36L117.93 703.55L118.13 703.74L118.37 703.97C118.428 704.035 118.492 704.095 118.56 704.15C118.76 704.36 118.98 704.56 119.2 704.76C127.07 712.262 135.374 719.294 144.07 725.82C151.82 716.75 163.46 706.04 163.46 706.04L219.77 658.04C222.977 655.145 226.422 652.525 230.07 650.21L235.66 650.34C243.14 657.4 254.73 663.34 268.4 668.23C269.345 672.268 270.524 676.248 271.93 680.15H281.93C281.93 680.15 286.93 708.73 283.64 716.36C280.35 723.99 284.22 760.95 311.04 770.86C311.04 770.86 324.46 773.15 327.14 758.66C329.82 744.17 330.2 712.93 330.2 712.93L333.67 683.93C369.89 689.78 401.36 691.59 401.36 691.59L405.11 727.16H440.55C440.96 727.4 441.37 727.63 441.77 727.88L442.58 728.37C443.53 728.96 444.46 729.56 445.37 730.18L445.52 730.28C460.1 740.1 470.29 752.68 476.92 763C492.86 756.7 509.01 751.25 525.58 747.93C547.42 743.56 569.58 742.93 591.85 744.34L602.1 730.28L604.38 727.16H625.9L627.18 747.84C638.49 749.3 649.77 751.02 660.99 752.73L671.93 754.42V726.98L732.93 725.13C732.87 728.733 733.325 732.326 734.28 735.8C735.75 741.8 735.89 753.8 735.5 766.31C742.52 768.01 749.487 769.907 756.4 772C773 777.06 789.16 783.36 805.23 789.89C804.61 786.63 803.94 783.96 803.23 783.05C800.94 780.05 817.68 776.58 817.68 776.58C817.68 776.58 819.3 776.28 822 775.81V796.75C826.76 798.69 831.523 800.61 836.29 802.51L836.12 798.46L838.97 803.56C839.78 803.89 840.61 804.21 841.43 804.56H841.55C846.717 806.56 851.907 808.503 857.12 810.39L987.2 809.12V819.12H987.31C991.996 817.456 996.566 815.482 1000.99 813.21L1000.81 808.92L1008.68 808.84H1012.75V786.03L1018.12 786.15V777.77L996.39 755.86C1007.79 747.5 1021.83 731.59 1020.08 704.66C1020.08 704.39 1020.08 704.1 1020.01 703.83C1020.01 703.32 1019.93 702.83 1019.88 702.3C1024.69 704.21 1035.1 697.96 1026.19 685.49ZM887.79 615.6C887.79 618.89 887.42 622.18 886.37 624.13C883.68 629.13 882.92 640.13 888.66 642.81C894.4 645.49 895.21 656.14 895 657.67H894.94C894.05 657.97 885.13 661.09 881.4 666.48C872.71 666.77 861.68 666.94 860.31 666.03C858.02 664.51 810.63 667.94 807.31 668.32C806.14 668.45 801.18 668.78 795.24 669.14L833.8 618.03C834.003 618.34 834.161 618.676 834.27 619.03C835.8 625.21 864.15 621.03 867.98 612.83C869.016 610.933 870.453 609.285 872.19 608L887.79 615.6ZM686.58 487.6L655.16 507.54L686.57 487.61L686.58 487.6ZM349.03 465.02L351.22 461.89L354.03 462.8L360.81 465.02H349.03ZM535.64 465.02H517.57C513.01 452.02 503.44 432.02 486.99 428.24C462.28 422.52 432.99 413.38 432.99 413.38C432.99 413.38 423.88 403.62 418.52 401.66C417.829 401.358 417.066 401.257 416.32 401.37L425.21 383.37C429.395 379.795 433.913 376.627 438.7 373.91C440.52 372.91 442.81 371.78 445.28 370.55C446.74 369.81 448.28 369.05 449.82 368.29C449.89 374.34 450.3 379.22 451.34 380.77C454.79 385.92 457.67 389.92 462.26 393.92C465.79 396.99 513.26 443.21 535.64 465.02ZM543.98 246.15L544.87 244.76C547.41 240.76 550.25 236.76 553.36 232.76L543.98 246.15ZM667.54 539.24V663.93V710.6V539.24Z" fill="url(#paint0_linear_6_2)"/>
<path d="M829.43 735.47L825 738.37L833.38 798.57L854.17 810.45L1008.22 808.93L1005.43 773.48L829.43 735.47Z" fill="#3A3768"/>
<path d="M833.54 802.6C828.82 800.72 824.11 798.807 819.41 796.86V767.75L832.31 773.64V773.84L833.36 798.57L833.54 802.6Z" fill="#3A3768"/>
<path opacity="0.1" d="M833.54 802.6C828.82 800.72 824.11 798.807 819.41 796.86V767.75L832.31 773.64V773.84L833.36 798.57L833.54 802.6Z" fill="black"/>
<path d="M996.55 813.32C992.173 815.579 987.649 817.544 983.01 819.2H982.9V790.04L995.79 795.93V796.14L996.34 809.06L996.55 813.32Z" fill="#3A3768"/>
<path opacity="0.1" d="M996.55 813.32C992.173 815.579 987.649 817.544 983.01 819.2H982.9V790.04L995.79 795.93V796.14L996.34 809.06L996.55 813.32Z" fill="black"/>
<path d="M1008.21 782.92V808.92H1004.21L854.21 810.38C849.04 808.53 843.91 806.58 838.79 804.58H838.67L836.13 774.17L1008.21 782.92Z" fill="#3A3768"/>
<path d="M838.75 804.64H838.63C837.82 804.33 837 804.01 836.2 803.64L833.37 798.57L820.73 775.8L819.41 773.42L815.62 766.61L824.99 738.42L835.81 773.35L836.09 774.24L836.79 782.24L838.75 804.64Z" fill="#3A3768"/>
<path d="M819.41 720.36H956.66L1013.53 777.99L836.1 774.2L819.41 720.36Z" fill="#3A3768"/>
<path d="M1013.53 777.99V786.33L836.79 782.16L836.1 774.2L1013.53 777.99Z" fill="#3A3768"/>
<path opacity="0.1" d="M1013.53 777.99V786.33L836.79 782.16L836.1 774.2L1013.53 777.99Z" fill="black"/>
<path d="M888.79 666.85C888.79 666.85 859.6 668.37 857.32 666.85C855.04 665.33 808.15 668.74 804.87 669.12C801.59 669.5 768.23 671.42 768.23 671.42L765.57 724.88L884.62 706.3L888.79 666.85Z" fill="#BBBBBB"/>
<path opacity="0.1" d="M888.79 666.85C888.79 666.85 859.6 668.37 857.32 666.85C855.04 665.33 808.15 668.74 804.87 669.12C801.59 669.5 768.23 671.42 768.23 671.42L765.57 724.88L884.62 706.3L888.79 666.85Z" fill="#E6E6E6"/>
<path d="M617.31 611.66L751.74 643.13L757.18 725.73L598.68 726.35L617.31 611.66Z" fill="#3A3768"/>
<path d="M720.06 466.87L623.24 523.16L646.82 593.42L652.18 684.12L722.12 669.16L757.18 597.25L788.45 553.46L759.7 500.44L720.06 466.87Z" fill="#3A3768"/>
<path d="M159.23 532.59C159.23 532.59 126.37 464.25 142.85 407.31C149.92 383.471 149.064 357.981 140.41 334.67C136.23 323.636 131.049 313.009 124.93 302.92" stroke="#535461" stroke-width="2" stroke-miterlimit="10"/>
<path d="M135.06 266.97C136.5 275.77 124.73 303.89 124.73 303.89C124.73 303.89 104.64 280.97 103.2 272.17C102.51 267.945 103.527 263.619 106.027 260.144C108.527 256.669 112.305 254.33 116.53 253.64C120.755 252.95 125.081 253.967 128.556 256.467C132.031 258.967 134.37 262.745 135.06 266.97Z" fill="#6274F2"/>
<path d="M169.35 311.42C165.78 319.59 140.62 336.8 140.62 336.8C140.62 336.8 136.2 306.64 139.78 298.47C141.497 294.549 144.702 291.47 148.689 289.912C152.676 288.354 157.119 288.443 161.04 290.16C164.961 291.877 168.04 295.082 169.598 299.069C171.157 303.056 171.067 307.499 169.35 311.42Z" fill="#6274F2"/>
<path d="M181.8 394.89C174.59 400.13 144.18 402.29 144.18 402.29C144.18 402.29 155.6 374.02 162.81 368.78C166.272 366.26 170.594 365.219 174.824 365.886C179.054 366.553 182.845 368.873 185.365 372.335C187.884 375.797 188.925 380.119 188.259 384.349C187.592 388.579 185.272 392.37 181.81 394.89H181.8Z" fill="#6274F2"/>
<path d="M176.99 460.17C170.77 466.56 141.17 473.81 141.17 473.81C141.17 473.81 147.64 444.03 153.86 437.64C155.339 436.121 157.103 434.909 159.051 434.072C160.999 433.235 163.093 432.79 165.213 432.762C167.333 432.734 169.438 433.124 171.407 433.909C173.376 434.695 175.171 435.861 176.69 437.34C178.209 438.819 179.421 440.583 180.258 442.531C181.095 444.479 181.54 446.573 181.568 448.693C181.596 450.813 181.206 452.918 180.421 454.887C179.635 456.856 178.469 458.651 176.99 460.17Z" fill="#6274F2"/>
<path d="M107.44 343.95C114.76 349.05 145.2 350.6 145.2 350.6C145.2 350.6 133.2 322.6 125.92 317.47C124.184 316.196 122.211 315.282 120.117 314.782C118.022 314.282 115.849 314.206 113.725 314.558C111.601 314.91 109.569 315.683 107.748 316.832C105.927 317.981 104.354 319.482 103.121 321.248C101.889 323.013 101.022 325.008 100.572 327.113C100.122 329.219 100.097 331.393 100.5 333.508C100.902 335.624 101.723 337.637 102.915 339.43C104.107 341.223 105.645 342.76 107.44 343.95Z" fill="#6274F2"/>
<path d="M102.79 420.42C111.29 423.1 140.79 415.47 140.79 415.47C140.79 415.47 120.99 392.3 112.48 389.62C108.428 388.446 104.078 388.905 100.36 390.897C96.6412 392.889 93.85 396.258 92.5828 400.281C91.3156 404.305 91.6731 408.664 93.5787 412.428C95.4843 416.191 98.7869 419.06 102.78 420.42H102.79Z" fill="#6274F2"/>
<path d="M108.46 495.26C116.39 499.34 146.76 496.81 146.76 496.81C146.76 496.81 131.15 470.63 123.22 466.55C121.335 465.581 119.277 464.992 117.165 464.818C115.052 464.645 112.926 464.888 110.908 465.536C108.89 466.184 107.019 467.223 105.402 468.593C103.785 469.964 102.454 471.64 101.485 473.525C100.516 475.41 99.9275 477.468 99.7536 479.58C99.5796 481.693 99.8234 483.819 100.471 485.837C101.119 487.855 102.158 489.726 103.528 491.343C104.899 492.96 106.575 494.291 108.46 495.26Z" fill="#6274F2"/>
<path opacity="0.25" d="M135.06 266.97C136.5 275.77 124.73 303.89 124.73 303.89C124.73 303.89 104.64 280.97 103.2 272.17C102.51 267.945 103.527 263.619 106.027 260.144C108.527 256.669 112.305 254.33 116.53 253.64C120.755 252.95 125.081 253.967 128.556 256.467C132.031 258.967 134.37 262.745 135.06 266.97Z" fill="black"/>
<path opacity="0.25" d="M169.35 311.42C165.78 319.59 140.62 336.8 140.62 336.8C140.62 336.8 136.2 306.64 139.78 298.47C141.497 294.549 144.702 291.47 148.689 289.912C152.676 288.354 157.119 288.443 161.04 290.16C164.961 291.877 168.04 295.082 169.598 299.069C171.157 303.056 171.067 307.499 169.35 311.42Z" fill="black"/>
<path opacity="0.25" d="M181.8 394.89C174.59 400.13 144.18 402.29 144.18 402.29C144.18 402.29 155.6 374.02 162.81 368.78C166.272 366.26 170.594 365.219 174.824 365.886C179.054 366.553 182.845 368.873 185.365 372.335C187.884 375.797 188.925 380.119 188.259 384.349C187.592 388.579 185.272 392.37 181.81 394.89H181.8Z" fill="black"/>
<path opacity="0.25" d="M176.99 460.17C170.77 466.56 141.17 473.81 141.17 473.81C141.17 473.81 147.64 444.03 153.86 437.64C155.339 436.121 157.103 434.909 159.051 434.072C160.999 433.235 163.093 432.79 165.213 432.762C167.333 432.734 169.438 433.124 171.407 433.909C173.376 434.695 175.171 435.861 176.69 437.34C178.209 438.819 179.421 440.583 180.258 442.531C181.095 444.479 181.54 446.573 181.568 448.693C181.596 450.813 181.206 452.918 180.421 454.887C179.635 456.856 178.469 458.651 176.99 460.17Z" fill="black"/>
<path opacity="0.25" d="M107.44 343.95C114.76 349.05 145.2 350.6 145.2 350.6C145.2 350.6 133.2 322.6 125.92 317.47C124.184 316.196 122.211 315.282 120.117 314.782C118.022 314.282 115.849 314.206 113.725 314.558C111.601 314.91 109.569 315.683 107.748 316.832C105.927 317.981 104.354 319.482 103.121 321.248C101.889 323.013 101.022 325.008 100.572 327.113C100.122 329.219 100.097 331.393 100.5 333.508C100.902 335.624 101.723 337.637 102.915 339.43C104.107 341.223 105.645 342.76 107.44 343.95Z" fill="black"/>
<path opacity="0.25" d="M102.79 420.42C111.29 423.1 140.79 415.47 140.79 415.47C140.79 415.47 120.99 392.3 112.48 389.62C108.428 388.446 104.078 388.905 100.36 390.897C96.6412 392.889 93.85 396.258 92.5828 400.281C91.3156 404.305 91.6731 408.664 93.5787 412.428C95.4843 416.191 98.7869 419.06 102.78 420.42H102.79Z" fill="black"/>
<path opacity="0.25" d="M108.46 495.26C116.39 499.34 146.76 496.81 146.76 496.81C146.76 496.81 131.15 470.63 123.22 466.55C121.335 465.581 119.277 464.992 117.165 464.818C115.052 464.645 112.926 464.888 110.908 465.536C108.89 466.184 107.019 467.223 105.402 468.593C103.785 469.964 102.454 471.64 101.485 473.525C100.516 475.41 99.9275 477.468 99.7536 479.58C99.5796 481.693 99.8234 483.819 100.471 485.837C101.119 487.855 102.158 489.726 103.528 491.343C104.899 492.96 106.575 494.291 108.46 495.26Z" fill="black"/>
<path d="M159.38 530.08C159.38 530.08 101.64 480.92 93.6401 422.18C90.4265 397.517 79.2997 374.562 61.9301 356.76C53.6423 348.376 44.6046 340.767 34.9301 334.03" stroke="#535461" stroke-width="2" stroke-miterlimit="10"/>
<path d="M29.6501 297.04C34.5301 304.5 35.1601 334.98 35.1601 334.98C35.1601 334.98 7.51006 322.17 2.63006 314.71C1.40059 312.938 0.538609 310.938 0.0950289 308.828C-0.348551 306.718 -0.364738 304.54 0.0474291 302.423C0.459597 300.306 1.29176 298.294 2.49476 296.504C3.69777 294.714 5.24723 293.184 7.05162 292.003C8.85601 290.822 10.8787 290.015 13.0003 289.629C15.122 289.243 17.2994 289.286 19.4041 289.755C21.5088 290.225 23.4981 291.111 25.2545 292.363C27.0108 293.614 28.4987 295.204 29.6301 297.04H29.6501Z" fill="#6274F2"/>
<path d="M79.01 323.77C79.01 332.69 63.01 358.61 63.01 358.61C63.01 358.61 46.75 332.83 46.71 323.92C46.6473 321.767 47.016 319.623 47.7944 317.614C48.5728 315.606 49.7451 313.773 51.2423 312.225C52.7396 310.676 54.5315 309.443 56.5126 308.597C58.4938 307.751 60.6241 307.31 62.7781 307.3C64.9322 307.29 67.0664 307.711 69.0553 308.539C71.0442 309.366 72.8475 310.583 74.3591 312.117C75.8707 313.652 77.06 315.474 77.857 317.475C78.654 319.476 79.0426 321.616 79 323.77H79.01Z" fill="#6274F2"/>
<path d="M124.21 395.05C119.74 402.76 92.82 417.05 92.82 417.05C92.82 417.05 91.82 386.59 96.27 378.87C98.4156 375.165 101.945 372.464 106.082 371.361C110.219 370.259 114.625 370.844 118.33 372.99C122.035 375.136 124.736 378.665 125.839 382.802C126.942 386.939 126.356 391.345 124.21 395.05Z" fill="#6274F2"/>
<path d="M146.27 456.68C143.17 465.03 119.05 483.68 119.05 483.68C119.05 483.68 112.93 453.81 115.99 445.42C117.53 441.474 120.559 438.291 124.423 436.557C128.288 434.823 132.679 434.676 136.651 436.149C140.622 437.622 143.856 440.596 145.656 444.431C147.455 448.266 147.676 452.654 146.27 456.65V456.68Z" fill="#6274F2"/>
<path d="M35.59 378.61C44.35 380.31 72.8 369.39 72.8 369.39C72.8 369.39 50.5 348.61 41.75 346.91C37.5868 346.191 33.3075 347.132 29.8299 349.531C26.3523 351.93 23.9533 355.596 23.1474 359.744C22.3415 363.891 23.1929 368.189 25.5189 371.716C27.845 375.243 31.4605 377.718 35.59 378.61Z" fill="#6274F2"/>
<path d="M62.3 450.35C71.16 449.35 95.05 430.43 95.05 430.43C95.05 430.43 67.56 417.27 58.7 418.27C56.5936 418.506 54.5544 419.155 52.6988 420.18C50.8432 421.204 49.2075 422.584 47.8852 424.241C45.2147 427.586 43.9826 431.856 44.46 436.11C44.6964 438.216 45.3453 440.256 46.3698 442.111C47.3943 443.967 48.7742 445.603 50.4308 446.925C53.7764 449.595 58.0459 450.827 62.3 450.35Z" fill="#6274F2"/>
<path d="M97.83 516.53C106.73 517.04 133.48 502.42 133.48 502.42C133.48 502.42 108.6 484.81 99.7001 484.29C95.4731 484.125 91.3502 485.625 88.2176 488.468C85.0851 491.311 83.193 495.269 82.948 499.493C82.7031 503.716 84.1248 507.866 86.9077 511.052C89.6906 514.238 93.6124 516.205 97.83 516.53Z" fill="#6274F2"/>
<path d="M670.93 712.05V754.71L660 753.03C648.9 751.32 637.73 749.62 626.54 748.16L625.27 727.58L625.17 725.73L623.73 702.42L666.54 711.13L667.78 711.38L670.93 712.05Z" fill="#3A3768"/>
<path opacity="0.1" d="M670.93 712.05V754.71L660 753.03C648.9 751.32 637.73 749.62 626.54 748.16L625.27 727.58L625.17 725.73L623.73 702.42L666.54 711.13L667.78 711.38L670.93 712.05Z" fill="black"/>
<path d="M618.12 708.04L605.29 725.73L603.93 727.58L601.68 730.69L591.53 744.69C569.53 743.34 547.53 743.92 525.95 748.26C509.55 751.56 493.57 756.98 477.79 763.26C471.23 752.99 461.14 740.48 446.72 730.71C445.15 729.64 443.52 728.61 441.84 727.6C440.77 726.97 439.69 726.35 438.58 725.75C431.758 722.059 424.497 719.243 416.97 717.37L618.12 708.04Z" fill="#3A3768"/>
<path d="M106.02 686.42L130.49 651.55L132.63 648.55L133.91 646.72L145.09 630.78H144.74C140.74 630.6 103.99 629.11 64.46 628.07C68.46 634.53 72.5466 640.927 76.72 647.26L77.95 649.1L80.03 652.18C86.74 662.05 93.78 671.68 101.32 680.88L106.02 686.42Z" fill="#3A3768"/>
<path d="M720.56 466.86L709.73 473.76L685.38 489.29L646.17 514.29L643.27 516.13L644.2 545.06L471.93 553.42H281.98L230.74 540.61L229.67 540.34L228.6 540.07L218.47 537.53L173.93 526.42L23.21 508.87C24.1214 504.432 25.2697 500.045 26.65 495.73C26.86 495.1 27.05 494.49 27.27 493.87C29.6116 486.976 32.37 480.23 35.53 473.67C114.92 468.1 206.35 467.08 230.34 466.91L236.34 466.86H720.56Z" fill="#3A3768"/>
<path opacity="0.1" d="M618.13 708.04L416.99 717.34C427.62 720 437.695 724.52 446.75 730.69H601.75L618.13 708.04Z" fill="black"/>
<path opacity="0.1" d="M145.09 630.75L133.93 646.69L132.65 648.52L130.51 651.52H129.28H126.55L80.0499 652.08L77.9299 649.06L76.6999 647.22C72.5133 640.9 68.4266 634.503 64.4399 628.03C103.97 629.03 140.75 630.56 144.72 630.74L145.09 630.75Z" fill="black"/>
<path d="M666.54 516.21V727.58H406.75L403.03 692.2C403.03 692.2 371.89 690.4 336.03 684.58C333.97 684.23 331.89 683.89 329.79 683.52C321.25 682.04 312.53 680.33 303.98 678.35L302.27 677.95C299.07 677.203 295.907 676.413 292.78 675.58C289.71 674.78 286.69 673.92 283.73 673.04C279.52 671.77 275.45 670.44 271.54 669.04C258.01 664.14 246.54 658.27 239.13 651.25L233.6 651.11L171.79 649.55H170.67H170.32H169.2L132.63 648.61L129.26 648.53L77.99 649.15L76.76 647.31C72.5734 640.99 68.4867 634.593 64.5 628.12C58.36 618.19 52.4 608.12 46.5 598.12C36.41 581.12 26.13 563.56 22.65 544.12C20.6264 532.476 20.8436 520.553 23.29 508.99C24.2015 504.552 25.3498 500.165 26.73 495.85H230.76L232 496.22L238.77 498.22L239.84 498.54L240.91 498.86C259.36 504.36 297.32 515.33 307.08 515.33H324.18L412.72 515.55L494.63 515.78C553.95 515.92 612.11 516.08 643.24 516.16L666.54 516.21Z" fill="#3A3768"/>
<path opacity="0.1" d="M666.54 514.36V725.73H406.75L403.03 690.35C403.03 690.35 372.03 688.55 336.25 682.75C335.06 682.54 333.85 682.35 332.64 682.15C323.78 680.64 314.64 678.9 305.74 676.89L304.51 676.61L303.7 676.42L301.53 675.9C298.59 675.22 295.67 674.49 292.79 673.72C289.63 672.893 286.523 672.017 283.47 671.09C279.2 669.82 275.07 668.45 271.11 667.01C257.77 662.14 246.47 656.32 239.11 649.38L236.61 649.31L173.37 647.71H172.27H171.93H170.82L133.92 646.71L130.82 646.63H129.27L76.73 647.27C72.5433 640.95 68.4567 634.553 64.47 628.08C58.33 618.15 52.37 608.08 46.47 598.08C36.38 581.08 26.1 563.52 22.62 544.08C20.5963 532.436 20.8135 520.513 23.26 508.95C24.1715 504.512 25.3198 500.126 26.7 495.81C26.91 495.18 27.1 494.57 27.32 493.95H230.76L232.2 494.4C233.63 494.83 236.05 495.57 239.2 496.5L240.26 496.82C240.6 496.92 240.95 497.04 241.32 497.14C259.93 502.61 297.42 513.42 307.11 513.42H325.11L414.63 513.65L496.32 513.86L646.15 514.26L666.54 514.36Z" fill="black"/>
<path opacity="0.1" d="M666.54 516.21V727.58H406.75L403.03 692.2C403.03 692.2 371.89 690.4 336.03 684.58C333.97 684.23 331.89 683.89 329.79 683.52C321.25 682.04 312.53 680.33 303.98 678.35L302.27 677.95C299.07 677.203 295.907 676.413 292.78 675.58C289.71 674.78 286.69 673.92 283.73 673.04C279.52 671.77 275.45 670.44 271.54 669.04C258.01 664.14 246.54 658.27 239.13 651.25L233.6 651.11L171.79 649.55H170.67H170.32H169.2L132.63 648.61L129.26 648.53L77.99 649.15L76.76 647.31C72.5734 640.99 68.4867 634.593 64.5 628.12C58.36 618.19 52.4 608.12 46.5 598.12C36.41 581.12 26.13 563.56 22.65 544.12C20.6264 532.476 20.8436 520.553 23.29 508.99C24.2015 504.552 25.3498 500.165 26.73 495.85H230.76L232 496.22L238.77 498.22L239.84 498.54L240.91 498.86C259.36 504.36 297.32 515.33 307.08 515.33H324.18L412.72 515.55L494.63 515.78C553.95 515.92 612.11 516.08 643.24 516.16L666.54 516.21Z" fill="black"/>
<path d="M720.56 466.87V500.35L666.55 540.7L643.27 516.15L720.56 466.87Z" fill="#3A3768"/>
<path opacity="0.1" d="M720.56 466.87V500.35L666.55 540.7L643.27 516.15L720.56 466.87Z" fill="black"/>
<path d="M748.51 503.78L720.56 500.35L666.55 540.7V561.81L748.51 503.78Z" fill="#3A3768"/>
<path d="M760.31 466.87V536.98L778.31 556.84L666.55 664.74V561.81L748.51 503.78L720.56 500.35V466.87H760.31Z" fill="#3A3768"/>
<path opacity="0.1" d="M760.31 466.87V536.98L778.31 556.84L666.55 664.74V561.81L748.51 503.78L720.56 500.35V466.87H760.31Z" fill="black"/>
<path opacity="0.1" d="M767.14 557.46L840.39 553.46L834.8 611.66L749.75 725L752.24 643.13H687.06L767.14 557.46Z" fill="black"/>
<path d="M769 557.46L842.25 553.46L836.67 611.66L751.62 725L754.1 643.13H688.93L769 557.46Z" fill="#3A3768"/>
<path opacity="0.1" d="M816.8 590.99H779.55L732.37 643.13H755.34L754.84 659.84L816.8 590.99Z" fill="black"/>
<path opacity="0.1" d="M814.32 590.99H777.07L729.89 643.13H752.86L752.35 659.84L814.32 590.99Z" fill="black"/>
<path d="M815.56 590.99H778.31L731.13 643.13H754.1L753.59 659.84L815.56 590.99Z" fill="#474747"/>
<path opacity="0.1" d="M752.86 723.76L667.79 726.35V663.5L690.17 641.89H755.34L752.86 723.76Z" fill="black"/>
<path d="M751.62 725L666.55 727.59V664.74L688.93 643.13H754.1L751.62 725Z" fill="#3A3768"/>
<path opacity="0.1" d="M751.62 725L666.55 727.59V664.74L688.93 643.13H754.1L751.62 725Z" fill="black"/>
<path d="M992.02 756.19C987.834 759.357 983.243 761.95 978.37 763.9C978.37 763.9 881.59 769.59 867.94 769.59C860.94 769.59 847.43 771.45 835.81 773.3L832.32 773.84C827.81 774.57 823.76 775.26 820.73 775.84L819.41 776.08C816.73 776.54 815.13 776.84 815.13 776.84C815.13 776.84 798.56 780.25 800.83 783.28C801.53 784.19 802.2 786.84 802.83 790.08C786.92 783.58 770.93 777.32 754.5 772.29C747.67 770.2 740.76 768.29 733.82 766.63C734.2 754.16 734.07 742.23 732.61 736.27C731.66 732.815 731.212 729.242 731.28 725.66C731.28 725.24 731.28 724.84 731.37 724.45C731.93 719.14 734.37 717.13 734.88 713.15C735.26 710.15 742.38 707.92 750.35 705.93L752.22 705.47L753.45 705.17C758.26 704.01 763.1 702.89 766.74 701.66C767.02 701.57 767.28 701.48 767.53 701.38C768.458 701.054 769.366 700.673 770.25 700.24C770.47 700.11 770.69 700 770.89 699.87C778.48 695.32 855.45 683.19 861.51 681.3C867.57 679.41 876.67 671.06 876.67 671.06C876.891 669.715 877.418 668.439 878.21 667.33C881.9 661.97 890.73 658.87 891.61 658.57H891.67L899.04 652.88C899.04 652.88 928.46 648.5 957.63 652.88C959.84 653.21 962.03 653.59 964.22 654.03C972.246 655.532 980.046 658.056 987.43 661.54C995.79 665.64 1002.96 671.21 1007.86 678.74C1010.54 682.88 1012.46 687.46 1013.55 692.27C1014.36 695.779 1014.95 699.336 1015.3 702.92C1015.38 703.72 1015.45 704.5 1015.49 705.28C1017.2 732.04 1003.3 747.88 992.02 756.19Z" fill="#E6E6E6"/>
<path d="M605.2 386.67H568.42L574.42 366.95H593.06C593.06 366.95 662.82 316.53 666.99 330.18C671.16 343.83 605.2 386.67 605.2 386.67Z" fill="#FFCACE"/>
<path d="M665.1 489.42C658.66 500.42 576.01 485.63 576.01 485.63L554.4 464.02L568.4 456.43L577.24 461.58L586.6 467.04C586.6 467.04 671.55 478.42 665.1 489.42Z" fill="#FFCACE"/>
<path d="M419.05 595.57C419.05 595.57 412.87 599.42 404.93 604.35C393.22 611.57 377.73 620.99 372.75 623.25C364.41 627.04 356.08 640.31 345.45 650.93C339.33 657.04 335.99 666.56 334.25 673.54C333.506 676.455 332.945 679.415 332.57 682.4L316.64 688.83L292.76 686.56V646.42C292.76 646.42 296.17 629.73 302.62 628.98C303.217 628.898 303.799 628.734 304.35 628.49C311.23 625.59 323.17 611.42 332.57 605.84C340.98 600.84 347.48 585.75 349.52 580.54C349.96 579.4 350.19 578.74 350.19 578.74L379.19 563.74L419.05 595.57Z" fill="#FFCACE"/>
<path opacity="0.1" d="M419.05 595.57C419.05 595.57 412.87 599.42 404.93 604.35C394.67 597.74 383.29 589.79 378.85 584.35C371.42 575.29 354.74 579.01 349.52 580.46C349.96 579.32 350.19 578.66 350.19 578.66L379.19 563.66L419.05 595.57Z" fill="black"/>
<path d="M521.41 478.04C521.41 478.04 516.86 486.04 516.86 489.42C516.86 492.8 495.86 514.42 495.86 514.42L454.93 561.07C454.93 561.07 440.09 572.42 441.23 583.82C442.37 595.22 426.71 613.96 426.71 613.96C426.71 613.96 390.04 592.96 381.16 582.11C372.45 571.5 351.03 578.44 350.26 578.69C351.51 577.39 411.78 515.46 424.17 504.77C436.56 494.08 424.17 493.97 424.17 489.98C424.17 487.33 383.41 473.54 356.29 464.65C342.75 460.22 332.61 457 332.61 457L354.78 408.09L391.78 398.42C391.78 398.42 413.5 404.58 417.94 403.54C418.676 403.433 419.428 403.533 420.11 403.83C425.42 405.78 434.43 415.48 434.43 415.48C434.43 415.48 463.43 424.58 487.89 430.27C512.35 435.96 521.41 478.04 521.41 478.04Z" fill="#2F2E41"/>
<path opacity="0.1" d="M334.29 673.54C333.546 676.455 332.985 679.415 332.61 682.4L316.68 688.83L292.8 686.56V646.42C292.8 646.42 296.21 629.73 302.66 628.98C303.257 628.898 303.839 628.734 304.39 628.49C286.94 636.07 303.98 677.13 303.98 677.13C320.61 662.07 329.93 667.86 334.29 673.54Z" fill="black"/>
<path d="M336.39 681.64L332.61 713.48C332.61 713.48 332.23 744.57 329.61 758.98C326.99 773.39 313.67 771.11 313.67 771.11C287.14 761.25 283.35 724.48 286.56 716.89C289.77 709.3 284.86 680.89 284.86 680.89H274.93C274.93 680.89 268.87 664.59 269.25 649.81C269.38 644.67 273.47 640.57 278.73 637.43C288.59 631.54 302.62 628.96 302.62 628.96C285.17 636.53 302.8 679.38 302.8 679.38C328.04 656.61 336.39 681.64 336.39 681.64Z" fill="#2F2E41"/>
<path opacity="0.1" d="M578.6 386.67H568.42L574.42 366.95H581.75C580.36 371.48 578.13 379.94 578.6 386.67Z" fill="black"/>
<path d="M544.21 249.21L553.61 235.74C553.61 235.74 558.06 271.6 547.41 280.74L534.2 313.52L525.39 354.07C525.39 354.07 542.55 358.39 544.21 360.78C545.87 363.17 580.56 363.73 580.56 363.73C580.56 363.73 570.89 389.89 580.56 395.58L500.37 389.89L481.04 376.24L495.82 292.08L517.93 259.53L544.21 249.21Z" fill="#5A53C9"/>
<path opacity="0.1" d="M544.21 249.21L553.61 235.74C553.61 235.74 558.06 271.6 547.41 280.74L534.2 313.52L525.39 354.07C525.39 354.07 542.55 358.39 544.21 360.78C545.87 363.17 580.56 363.73 580.56 363.73C580.56 363.73 570.89 389.89 580.56 395.58L500.37 389.89L481.04 376.24L495.82 292.08L517.93 259.53L544.21 249.21Z" fill="#6C63FF"/>
<path d="M891.65 620.12L798.94 575.12C798.94 575.12 766.33 610.74 761.02 588.42C755.71 566.1 777.71 550.88 777.71 550.88L935.05 587.66L891.65 620.12Z" fill="#FFCACE"/>
<path opacity="0.05" d="M891.65 620.12L798.94 575.12C798.94 575.12 766.33 610.74 761.02 588.42C755.71 566.1 777.71 550.88 777.71 550.88L935.05 587.66L891.65 620.12Z" fill="black"/>
<path d="M495.82 326.2L481.93 344.12L480.24 346.3L467.6 362.6C467.6 362.6 455.77 368.27 446.6 372.9C444.16 374.13 441.9 375.29 440.1 376.24C435.362 378.946 430.891 382.097 426.75 385.65C423.83 388.07 421.9 389.89 421.9 389.89L404.84 393.31C404.84 393.31 288.26 329.04 316.12 317.1C322.63 314.31 330 309.54 337.48 303.86C357.39 288.76 378.04 267.27 385.16 259.64C386.85 257.84 387.78 256.82 387.78 256.82L404.78 247.16L459.35 294.57L495.82 326.2Z" fill="#FFCACE"/>
<path d="M591.93 208.48C585.016 209.865 578.488 212.742 572.8 216.91C561.57 224.8 552.2 236.67 545.14 247.74C539.367 256.766 534.378 266.271 530.23 276.15C530.23 276.15 454.31 176.06 499.8 184.59C506.6 185.918 513.522 186.522 520.45 186.39C528.928 186.317 537.3 184.507 545.05 181.07C556.22 175.94 560.65 168.97 560.65 168.97C560.65 168.97 629.47 201.65 591.93 208.48Z" fill="#FFCACE"/>
<path d="M942.25 454.53C942.25 454.53 888.79 505.34 889.55 488.28C889.59 485.828 889.331 483.38 888.78 480.99C886.37 469.29 878.85 452.29 872.89 439.99C868.47 430.85 864.89 424.25 864.89 424.25C864.89 424.25 931.62 394.68 928.96 404.91C928.09 408.25 929.21 414.68 931.09 421.84C933.03 429.21 935.8 437.36 938.09 443.69C940.38 450.02 942.25 454.53 942.25 454.53Z" fill="#FFCACE"/>
<path opacity="0.1" d="M591.93 208.48C585.016 209.865 578.488 212.742 572.8 216.91C560.12 210.56 559.4 197.85 555.19 184.08C554.75 182.66 555.96 175.82 555.65 174.35C566.82 169.22 560.65 168.97 560.65 168.97C560.65 168.97 629.47 201.65 591.93 208.48Z" fill="black"/>
<path d="M650.8 168.97C650.8 179.318 647.731 189.433 641.982 198.037C636.233 206.641 628.062 213.347 618.502 217.307C608.942 221.267 598.422 222.304 588.273 220.285C578.124 218.266 568.801 213.283 561.484 205.966C554.167 198.649 549.184 189.326 547.165 179.177C545.146 169.028 546.183 158.508 550.143 148.948C554.103 139.388 560.809 131.217 569.412 125.468C578.016 119.719 588.132 116.65 598.48 116.65C605.363 116.608 612.185 117.932 618.552 120.546C624.919 123.16 630.704 127.013 635.571 131.88C640.437 136.746 644.29 142.531 646.904 148.898C649.518 155.265 650.842 162.087 650.8 168.97Z" fill="#FFCACE"/>
<path opacity="0.1" d="M495.82 326.2L481.93 344.12L480.24 346.3C479.66 346.35 479.09 346.39 478.52 346.4C472.2 346.52 467.06 343.82 464.52 336.4C462.612 331.366 459.959 326.647 456.65 322.4C454.97 320.11 453.09 317.79 451.07 315.4C429.49 290.4 391.07 263.69 385.13 259.6C386.82 257.8 387.75 256.78 387.75 256.78L404.75 247.12L459.32 294.53L495.82 326.2Z" fill="black"/>
<path opacity="0.1" d="M545.14 247.74C539.367 256.766 534.378 266.271 530.23 276.15C530.23 276.15 454.31 176.06 499.8 184.59C506.6 185.918 513.522 186.522 520.45 186.39C525.06 191.33 531.63 207.6 535.6 218.23C537.268 222.888 538.464 227.703 539.17 232.6C540.19 239.25 544.19 246.17 545.14 247.74Z" fill="black"/>
<path d="M546.16 293.21C542.48 301.21 532.22 316.53 532.22 316.53C525.289 322.51 517.936 327.984 510.22 332.91C507.52 334.62 504.69 336.27 501.85 337.76C494.93 341.42 487.93 344.02 481.93 344.12C475.61 344.25 470.47 341.54 467.93 334.12C466.021 329.069 463.364 324.333 460.05 320.07C458.37 317.79 456.49 315.47 454.47 313.12C431.03 285.99 387.74 256.78 387.74 256.78C388.21 256.13 403.31 235.52 417.3 221.26C431.52 206.78 499.19 181.72 500.9 179.45C500.998 179.316 501.105 179.189 501.22 179.07C501.881 178.395 502.683 177.873 503.568 177.542C504.453 177.211 505.401 177.079 506.343 177.156C507.285 177.232 508.198 177.515 509.019 177.984C509.839 178.453 510.546 179.097 511.09 179.87C512.909 182.489 515.248 184.705 517.96 186.38C522.57 189.16 530.06 207.66 534.42 219.33C536.093 223.99 537.289 228.808 537.99 233.71C539.15 241.26 544.17 249.18 544.17 249.18C544.17 249.18 549.85 285.25 546.16 293.21Z" fill="#6C63FF"/>
<path opacity="0.1" d="M577.26 461.58C575.39 466.1 569.26 470.07 563.35 472.97L554.4 464.02L568.4 456.43L577.26 461.58Z" fill="black"/>
<path opacity="0.1" d="M514.02 282.42C514.02 282.42 506.93 314.42 501.86 337.77C494.93 341.42 487.93 344.02 481.93 344.12L467.6 362.6C467.6 362.6 455.77 368.27 446.6 372.9C446.6 371.41 446.55 369.82 446.55 368.17C446.626 350.725 448.996 333.366 453.6 316.54C453.9 315.44 454.2 314.31 454.51 313.16C456.08 307.39 457.77 301.01 459.41 294.56C462.06 284.22 464.59 273.72 466.26 265.35C471.38 239.76 494.13 243.74 494.13 243.74C520.28 240.89 514.02 282.42 514.02 282.42Z" fill="black"/>
<path opacity="0.1" d="M520.84 284.68C520.84 284.68 515.09 310.68 510.23 332.91C507.53 334.62 504.7 336.27 501.86 337.76C494.93 341.42 487.93 344.02 481.93 344.12C475.61 344.25 470.47 341.54 467.93 334.12C466.021 329.069 463.364 324.333 460.05 320.07C460.17 319.6 460.3 319.12 460.43 318.64C464.62 303.23 470.12 282.18 473.04 267.58C478.16 241.99 500.91 245.97 500.91 245.97C527.1 243.17 520.84 284.68 520.84 284.68Z" fill="black"/>
<path d="M498.66 243.74C498.66 243.74 475.92 239.74 470.8 265.35C467.88 279.94 462.37 301 458.18 316.41C453.505 333.448 451.117 351.032 451.08 368.7C451.08 375.61 451.46 381.36 452.6 383.07C456.01 388.19 458.86 392.17 463.41 396.15C467.96 400.13 547.41 478.04 547.41 478.04C547.41 478.04 576.58 468.94 574.3 457.57C574.3 457.57 528.24 413.78 525.96 405.25C525.96 405.25 499.8 369.76 501.51 360.78C503.22 351.8 518.57 282.42 518.57 282.42C518.57 282.42 524.82 240.89 498.66 243.74Z" fill="#6C63FF"/>
<path opacity="0.1" d="M427.85 383.42L426.74 385.68C423.82 388.1 421.89 389.92 421.89 389.92L404.83 393.34C404.83 393.34 288.25 329.07 316.11 317.13C322.62 314.34 329.99 309.57 337.47 303.89C356.97 305.43 384.36 326.23 384.36 326.23C408.01 340.88 427.85 383.42 427.85 383.42Z" fill="black"/>
<path opacity="0.1" d="M420.08 403.83L394.59 409.83L356.29 464.68C342.75 460.25 332.61 457.03 332.61 457.03L354.78 408.12L391.78 398.45C391.78 398.45 413.5 404.61 417.94 403.57C418.664 403.459 419.404 403.549 420.08 403.83Z" fill="black"/>
<path d="M106.02 686.42C111.24 692.5 116.69 698.42 122.43 703.97L122.82 704.35L123.06 704.58L123.24 704.76C123.45 704.96 123.66 705.17 123.88 705.36C131.661 712.825 139.879 719.82 148.49 726.31C156.16 717.31 167.68 706.64 167.68 706.64L223.41 658.87C226.581 655.988 229.99 653.379 233.6 651.07C234.6 650.45 235.6 649.85 236.6 649.29C237.835 648.619 239.107 648.018 240.41 647.49C248.96 644.08 256.93 622.49 256.93 622.49L299.01 565.62L305.13 553.42L324.21 515.27L325.13 513.42L341.13 481.42L351.32 466.83L353.5 463.71L391.18 409.77L417.93 403.54L426.73 385.67C426.73 385.67 406.89 343.16 383.24 328.47C383.24 328.47 354.13 306.36 334.56 306.04L334.19 306.29C328.721 310.046 323.045 313.491 317.19 316.61C316.31 317.07 315.43 317.5 314.59 317.89C310.97 319.56 307.76 320.61 305.93 320.19C299.68 318.76 255.93 370.52 251.93 393.26C247.93 416 243.4 417.15 243.4 417.15C243.4 417.15 236 438.15 237.14 442.15C237.98 445.09 232.02 456.04 230.42 466.85C229.757 470.55 229.918 474.35 230.89 477.98C232.422 483.262 232.894 488.795 232.28 494.26C232.28 494.86 232.16 495.45 232.08 496.04C231.36 501.648 229.604 507.074 226.9 512.04C224.2 516.67 221.76 528.65 218.51 537.45C216.99 541.63 215.27 545.08 213.26 546.73C207 551.85 197.9 575.17 197.9 575.17C197.9 575.17 178 600.76 172.9 602.46C169.49 603.6 154.47 619.88 144.84 630.62C139.99 636 136.5 640 136.5 640L130.91 646.49L129.22 648.42L126.53 651.56L101.32 680.82L106.02 686.42Z" fill="#2F2E41"/>
<path d="M330.71 320.65C330.61 320.75 324.2 326.65 317.2 332.89C312.2 337.32 306.9 341.89 303.38 344.59C295.18 350.86 269.43 396.59 268.31 398.64L256.93 442.93C256.51 444.98 253.81 457.85 251.19 466.86C249.88 471.34 248.61 474.86 247.64 475.64C246.33 476.7 243.64 486.64 241.31 497.07C241.18 497.65 241.04 498.23 240.92 498.81C239.92 503.35 238.92 507.89 238.17 511.71L230.72 540.65L214.3 604.42C214.03 605.04 208.38 617.84 199.71 620.74C197.23 621.57 186.95 632.42 173.39 647.69L171.79 649.51C157.48 665.71 139.83 686.42 123.93 705.42C123.71 705.23 123.5 705.02 123.29 704.82L123.11 704.64C137.36 687.69 155.36 666.5 170.37 649.53L171.97 647.71C185.7 632.22 196.65 620.63 199.4 619.71C207.58 616.98 213.21 604.22 213.27 604.09L229.63 540.42L237.08 511.42C237.35 510.07 238.44 504.69 239.84 498.42C239.96 497.85 240.1 497.27 240.23 496.68C242.43 487.03 245.23 476.06 246.95 474.68C247.7 474.08 248.81 471.02 250.04 466.79C252.04 459.94 254.3 450.04 255.84 442.6L267.28 398.08C268.37 396.08 294.16 350.08 302.69 343.61C306.19 340.94 311.47 336.38 316.46 331.94C322.21 326.86 327.55 321.94 329.33 320.3C329.7 319.95 329.92 319.76 329.94 319.74L330.71 320.65Z" fill="#FCFCFC"/>
<path d="M329.58 320.65C329.47 320.74 323.46 326.32 316.71 332.32C311.53 336.92 305.92 341.78 302.25 344.59C294.04 350.86 268.25 396.59 267.17 398.64L255.82 442.93C255.4 444.98 252.69 457.85 250.07 466.86C248.76 471.34 247.49 474.86 246.52 475.64C245.23 476.64 242.63 486.46 240.27 496.75C240.13 497.33 240.01 497.91 239.87 498.49C238.82 503.14 237.87 507.79 237.05 511.71L229.67 540.42L213.16 604.42C212.89 605.04 207.24 617.84 198.57 620.74C196.09 621.57 185.82 632.4 172.29 647.65L170.67 649.47C156.51 665.47 139.07 685.95 123.24 704.76L123.06 704.58L122.82 704.35L122.43 703.97C136.62 687.12 154.37 666.21 169.2 649.44L170.81 647.62C184.54 632.15 195.47 620.57 198.21 619.62C206.4 616.89 212.03 604.13 212.08 604L228.56 540.05L235.93 511.42C236.19 510.05 237.31 504.51 238.75 498.12C238.88 497.55 239.01 496.97 239.15 496.38C241.34 486.81 244.1 476.06 245.79 474.71C246.54 474.11 247.65 471.05 248.88 466.82C250.88 459.97 253.15 450.07 254.68 442.63L266.12 398.11C267.22 396.11 293 350.11 301.53 343.64C305.19 340.84 310.8 335.99 315.98 331.39C322.69 325.39 328.68 319.87 328.78 319.77L329.31 320.33L329.58 320.65Z" fill="#474747"/>
<path opacity="0.1" d="M374.69 352.93C374.69 352.93 361.8 382.5 371.69 393.31L374.69 352.93Z" fill="black"/>
<path opacity="0.1" d="M394.02 369.61C394.02 369.61 386.44 390.46 390.61 393.31L394.02 369.61Z" fill="black"/>
<path opacity="0.1" d="M403.82 381.42C403.82 381.42 400.72 391.94 403.82 395.54V381.42Z" fill="black"/>
<path opacity="0.1" d="M229.1 603.15C229.1 603.15 256.4 593.68 255.64 598.98C254.88 604.28 229.1 603.15 229.1 603.15Z" fill="black"/>
<path opacity="0.1" d="M223.79 628.94C223.79 628.94 238.6 635.76 242.38 628.94C246.16 622.12 223.79 628.94 223.79 628.94Z" fill="black"/>
<path opacity="0.1" d="M442.93 553.11C442.93 553.11 412.6 558.42 412.22 563.73C411.84 569.04 442.93 553.11 442.93 553.11Z" fill="black"/>
<path opacity="0.1" d="M427.58 418.9C427.58 418.9 415.26 432.9 417.15 438.23C419.04 443.56 427.58 418.9 427.58 418.9Z" fill="black"/>
<path opacity="0.1" d="M650.8 168.97C650.806 174.106 650.051 179.215 648.56 184.13C647.555 183.705 646.438 183.621 645.38 183.89C645.14 185.653 644.217 187.251 642.81 188.34L635.87 179.85C635.679 179.564 635.412 179.335 635.1 179.19C634.4 178.93 633.71 179.52 633.1 179.93C630.77 181.45 627.57 180.67 625.22 179.18C622.87 177.69 620.94 175.56 618.51 174.18C616.188 172.915 613.542 172.37 610.909 172.616C608.277 172.862 605.777 173.887 603.73 175.56C601.828 177.374 600.149 179.408 598.73 181.62C596.759 184.566 594.186 187.061 591.18 188.94C589.672 189.872 587.97 190.447 586.206 190.62C584.441 190.794 582.661 190.561 581 189.94C579.99 189.372 578.933 188.894 577.84 188.51C574.42 187.67 571.35 190.68 569.15 193.44C566.95 196.2 564.15 199.32 560.62 198.8C554.14 197.8 554.72 186.39 548.5 184.32H548.44C546.238 177.125 545.614 169.539 546.611 162.081C547.607 154.623 550.201 147.467 554.215 141.102C558.228 134.738 563.568 129.314 569.869 125.2C576.169 121.087 583.283 118.381 590.725 117.267C598.167 116.153 605.761 116.657 612.99 118.746C620.219 120.834 626.912 124.457 632.614 129.367C638.315 134.278 642.89 140.36 646.027 147.2C649.164 154.04 650.788 161.475 650.79 169L650.8 168.97Z" fill="black"/>
<path d="M645.16 119.83C639.16 115.88 632.43 113.29 626.23 109.7C617.73 104.76 610.23 97.93 601.04 94.47C596.253 92.8563 591.32 91.7175 586.31 91.07C583.47 90.61 580.54 90.15 577.74 90.79C573.9 91.65 570.81 94.42 567.35 96.29C559.05 100.78 548.42 100.19 540.87 105.86C533.06 111.74 530.98 122.39 529.41 132.04C526.73 148.55 523.73 165.48 515.02 179.75C514.512 180.39 514.259 181.195 514.31 182.01C514.523 182.65 514.933 183.206 515.48 183.6C520.56 188.04 527.59 191.98 533.77 189.26C536.37 188.11 538.35 185.94 540.61 184.21C542.87 182.48 545.8 181.14 548.5 182.03C554.73 184.09 554.14 195.52 560.63 196.5C564.12 197.02 566.97 193.91 569.16 191.15C571.35 188.39 574.42 185.38 577.85 186.22C578.944 186.604 580.005 187.079 581.02 187.64C584.25 189.06 588.12 188.42 591.19 186.64C594.2 184.763 596.774 182.264 598.74 179.31C600.163 177.104 601.841 175.073 603.74 173.26C605.786 171.585 608.285 170.559 610.918 170.311C613.551 170.063 616.197 170.606 618.52 171.87C620.95 173.25 622.87 175.37 625.23 176.87C627.59 178.37 630.78 179.14 633.11 177.61C633.74 177.2 634.43 176.61 635.11 176.87C635.419 177.02 635.684 177.248 635.88 177.53L642.81 186.02C644.22 184.932 645.147 183.334 645.39 181.57C647.15 181.02 648.97 181.97 650.7 182.57C652.43 183.17 654.76 183.36 655.76 181.81C656.57 180.56 656.03 178.9 656.1 177.41C656.24 174.7 658.46 172.54 660.84 171.26C663.22 169.98 665.91 169.26 668.2 167.83C672.52 165.11 674.96 159.92 675 154.83C674.934 150.461 673.561 146.212 671.06 142.63C667.74 137.69 664.33 139.25 659.95 136.69C657.39 135.2 656.62 132.21 655.15 129.81C652.582 125.799 649.173 122.394 645.16 119.83Z" fill="#313131"/>
<path opacity="0.1" d="M923.29 417.76C915.16 431.03 908.35 443.92 891.66 443.92C885.191 443.924 878.795 442.561 872.89 439.92C868.47 430.78 864.89 424.18 864.89 424.18C864.89 424.18 931.62 394.61 928.96 404.84C928.11 408.21 921.4 410.61 923.29 417.76Z" fill="black"/>
<path d="M891.66 441.64C917.203 441.64 937.91 420.933 937.91 395.39C937.91 369.847 917.203 349.14 891.66 349.14C866.117 349.14 845.41 369.847 845.41 395.39C845.41 420.933 866.117 441.64 891.66 441.64Z" fill="#FFCACE"/>
<path opacity="0.1" d="M1015.47 705.26C1015.05 705.129 1014.67 704.916 1014.34 704.635C1014 704.353 1013.73 704.008 1013.53 703.62C1010.87 698.32 961.58 690.73 961.58 690.73L950.93 671.02C950.93 671.02 925.15 672.91 920.6 668.02C916.05 663.13 891.4 662.33 891.6 660.82C891.644 660.066 891.621 659.31 891.53 658.56H891.6L898.97 652.87C898.97 652.87 1000.97 637.7 1013.47 692.3C1014.49 696.559 1015.16 700.893 1015.47 705.26Z" fill="black"/>
<path opacity="0.1" d="M942.25 454.53C942.25 454.53 888.79 505.34 889.55 488.28C889.59 485.828 889.331 483.38 888.78 480.99L888.93 480.42C888.93 480.42 902.47 466.27 905.88 459.82C908.24 455.38 926.88 447.82 938.14 443.63C940.43 450.02 942.25 454.53 942.25 454.53Z" fill="black"/>
<path d="M946.8 441.64C946.8 441.64 909.26 454.54 905.8 460.98C902.34 467.42 888.93 481.58 888.93 481.58L876.69 534.15L883.89 606.57C883.89 606.57 885.79 620.22 883.13 625.14C880.47 630.06 879.72 641.07 885.41 643.72C891.1 646.37 891.89 656.99 891.68 658.51C891.47 660.03 916.12 660.78 920.68 665.71C925.24 670.64 951.01 668.71 951.01 668.71L961.58 688.42C961.58 688.42 1010.87 696 1013.53 701.31C1016.19 706.62 1031.72 700.55 1021.53 686.14C1011.34 671.73 1016.6 648.99 1016.6 648.99C1016.6 648.99 1013.6 548.9 997.6 525.39C997.6 525.39 974.85 470.8 971.06 468.52C967.27 466.24 944.52 450.36 946.8 441.64Z" fill="#474747"/>
<path opacity="0.1" d="M946.8 613.96C946.8 613.96 1014.28 667.96 1009.73 677.84C1005.18 687.72 946.8 613.96 946.8 613.96Z" fill="black"/>
<path opacity="0.1" d="M950.8 646.36C950.8 646.36 990.19 666.01 984.71 678.75L950.8 646.36Z" fill="black"/>
<path opacity="0.1" d="M903.58 597.42C903.58 597.42 924.81 596.42 925.58 600.36L903.58 597.42Z" fill="black"/>
<path opacity="0.1" d="M899.03 613.96C899.03 613.96 930.12 621.73 930.12 626.28L899.03 613.96Z" fill="black"/>
<path d="M927.12 564.81L891.66 597.25C891.66 597.25 868.66 605.8 864.91 613.96C861.16 622.12 833.06 626.28 831.55 620.12C830.04 613.96 788.33 580.03 788.33 580.03C788.33 580.03 765.58 559.56 760.27 544.42C754.96 529.28 735.27 516.54 735.27 516.54C735.27 516.54 675.37 500.44 684.47 478.07C693.57 455.7 754.93 496.62 754.93 496.62C754.93 496.62 792.85 523.91 798.93 532.26C805.01 540.61 848.21 558.96 848.21 558.96C847.81 555.08 855.6 545.48 863.13 537.19C870 529.62 876.65 523.19 876.65 523.19L926.72 564.52L927.12 564.81Z" fill="#FFCACE"/>
<path opacity="0.1" d="M952.86 698.7C952.86 698.7 984.71 736.99 982.86 744.57C981.01 752.15 952.86 698.7 952.86 698.7Z" fill="black"/>
<path opacity="0.1" d="M765.57 735.47C766.33 736.61 769.36 749.47 783.77 757.08L765.57 735.47Z" fill="black"/>
<path opacity="0.1" d="M798.18 746.28C798.18 746.28 797.42 761.28 808.42 765.04C819.42 768.8 798.18 746.28 798.18 746.28Z" fill="black"/>
<path d="M948.73 426.42C948.57 423.58 947.76 420.815 946.36 418.339C944.961 415.863 943.01 413.742 940.66 412.14C942.392 411.46 943.834 410.197 944.735 408.569C945.637 406.941 945.943 405.049 945.6 403.22C945.23 404.46 943.75 404.93 942.49 405.22C941.75 405.39 941.1 405.51 940.49 405.61C942.035 402.673 943.307 399.6 944.29 396.43C946.15 389.68 945.16 382.5 943.58 375.68C941.46 366.47 937.96 357 930.46 351C927.051 348.506 923.359 346.425 919.46 344.8C915.948 343.016 912.262 341.598 908.46 340.57C904.6 339.67 900.6 339.57 896.66 339.05C889.02 338.05 881.66 335.44 873.93 335.05C866.2 334.66 857.65 336.95 853.69 343.37C852.435 345.31 851.846 347.606 852.01 349.91C852.43 353.96 855.79 357.27 859.62 358.91C863.45 360.55 867.54 360.58 871.41 361.82C875.96 363.28 880.41 365.13 884.96 366.71C887.39 367.55 889.91 368.46 891.71 370.26C894.58 373.12 894.93 377.47 895.62 381.41C896.673 387.412 898.862 393.159 902.07 398.34C903.2 400.17 904.49 402.01 904.78 404.12C905.14 406.69 904.17 409.87 906.24 411.52C907.85 412.79 910.24 412.16 912.04 411.08C913.84 410 915.36 408.51 917.39 408.08C919.83 407.56 922.39 408.75 924.19 410.4C925.615 411.698 926.742 413.289 927.495 415.063C928.247 416.837 928.607 418.754 928.55 420.68C928.45 423.07 927.71 425.55 928.55 427.8C929.34 429.87 932.47 431.11 933.93 429.68C934.044 429.931 934.175 430.175 934.32 430.41C935.85 432.75 938.75 433.84 941.54 434.12C942.923 434.345 944.341 434.161 945.62 433.59C948.11 432.29 948.86 429.16 948.73 426.42Z" fill="#313131"/>
<path opacity="0.1" d="M284.83 680.87H274.93C274.93 680.87 268.87 664.57 269.25 649.79C269.38 644.65 273.47 640.55 278.73 637.41L284.83 680.87Z" fill="black"/>
<g opacity="0.1">
<path d="M530.6 127.49C530.97 125.22 531.37 122.88 531.87 120.57C530.837 124.341 530.033 128.172 529.46 132.04C528.37 138.78 527.22 145.58 525.65 152.24C527.72 144.08 529.372 135.819 530.6 127.49Z" fill="black"/>
<path d="M669.38 163.36C667.09 164.8 664.38 165.51 662.02 166.79C659.66 168.07 657.42 170.23 657.28 172.94C657.25 173.41 657.25 173.88 657.28 174.35C658.226 173.095 659.443 172.07 660.84 171.35C663.22 170.07 665.9 169.35 668.19 167.92C670.091 166.638 671.68 164.945 672.84 162.967C673.999 160.988 674.7 158.775 674.89 156.49C673.817 159.3 671.89 161.703 669.38 163.36Z" fill="black"/>
<path d="M651.93 178.1C650.2 177.46 648.38 176.51 646.62 177.1C646.377 178.864 645.45 180.462 644.04 181.55L637.11 173.06C636.914 172.777 636.649 172.55 636.34 172.4C635.64 172.15 634.95 172.73 634.34 173.14C632.01 174.67 628.82 173.89 626.46 172.4C624.1 170.91 622.18 168.78 619.75 167.4C617.427 166.122 614.774 165.568 612.134 165.808C609.493 166.049 606.984 167.073 604.93 168.75C603.034 170.547 601.356 172.561 599.93 174.75C597.965 177.703 595.39 180.203 592.38 182.08C589.31 183.82 585.44 184.46 582.21 183.08C581.195 182.519 580.134 182.044 579.04 181.66C575.61 180.82 572.55 183.83 570.35 186.59C568.15 189.35 565.35 192.46 561.82 191.94C555.33 190.94 555.92 179.53 549.69 177.47C546.99 176.58 544.06 177.92 541.8 179.65C539.54 181.38 537.56 183.55 534.96 184.65C528.78 187.37 521.75 183.43 516.67 178.99C516.395 178.762 516.144 178.508 515.92 178.23C515.64 178.72 515.37 179.23 515.08 179.69C514.563 180.325 514.309 181.134 514.37 181.95C514.576 182.591 514.982 183.149 515.53 183.54C520.61 187.98 527.64 191.92 533.82 189.2C536.42 188.05 538.4 185.88 540.66 184.15C542.92 182.42 545.85 181.08 548.55 181.97C554.78 184.03 554.19 195.46 560.68 196.44C564.17 196.96 567.02 193.85 569.21 191.09C571.4 188.33 574.48 185.32 577.9 186.16C578.996 186.541 580.057 187.016 581.07 187.58C584.3 189 588.17 188.36 591.25 186.58C594.255 184.699 596.825 182.2 598.79 179.25C600.213 177.044 601.892 175.013 603.79 173.2C605.835 171.526 608.332 170.5 610.963 170.252C613.594 170.005 616.239 170.547 618.56 171.81C620.99 173.19 622.92 175.31 625.27 176.81C627.62 178.31 630.82 179.08 633.15 177.55C633.78 177.14 634.47 176.55 635.15 176.81C635.459 176.96 635.724 177.187 635.92 177.47L642.85 185.96C644.26 184.872 645.187 183.274 645.43 181.51C647.19 180.96 649.02 181.91 650.75 182.51C652.48 183.11 654.75 183.3 655.75 181.75C656.45 180.66 656.14 179.28 656.09 177.95C655.445 178.261 654.742 178.435 654.026 178.461C653.31 178.487 652.596 178.364 651.93 178.1Z" fill="black"/>
</g>
<path opacity="0.1" d="M926.73 564.49C926.13 565.01 925.502 565.497 924.85 565.95C924.85 565.95 871.85 537.7 863.14 537.19C870.01 529.62 876.66 523.19 876.66 523.19L926.73 564.49Z" fill="black"/>
<path opacity="0.1" d="M929.4 469.34C929.4 469.34 976.4 500.07 959.69 528.49C942.98 556.91 929.4 565.95 929.4 565.95C929.4 565.95 874.01 536.42 867.18 537.19C860.35 537.96 891.18 482.72 891.18 482.72L929.4 469.34Z" fill="black"/>
<path d="M927.12 468.2C927.12 468.2 974.12 498.93 957.41 527.35C940.7 555.77 927.12 564.81 927.12 564.81C927.12 564.81 871.73 535.29 864.93 536.05C858.13 536.81 888.93 481.58 888.93 481.58L927.12 468.2Z" fill="#474747"/>
<g opacity="0.1">
<path d="M943.93 432.42C941.15 432.13 938.25 431.04 936.71 428.7C936.56 428.46 936.44 428.21 936.32 427.97C934.86 429.4 931.73 428.16 930.94 426.09C930.08 423.84 930.83 421.36 930.94 418.97C931 417.043 930.641 415.126 929.888 413.351C929.136 411.577 928.007 409.986 926.58 408.69C924.76 407.04 922.23 405.85 919.78 406.37C917.78 406.8 916.18 408.29 914.43 409.37C912.68 410.45 910.24 411.08 908.63 409.81C906.57 408.16 907.53 404.98 907.17 402.41C906.88 400.3 905.59 398.46 904.46 396.63C901.257 391.446 899.068 385.701 898.01 379.7C897.32 375.76 897.01 371.41 894.11 368.55C892.31 366.75 889.79 365.84 887.36 365C882.84 363.42 878.36 361.57 873.8 360.11C869.94 358.87 865.8 358.8 862.02 357.2C858.24 355.6 854.82 352.2 854.4 348.2C854.234 345.894 854.828 343.597 856.09 341.66C856.391 341.165 856.725 340.691 857.09 340.24C855.79 341.277 854.678 342.528 853.8 343.94C852.538 345.873 851.948 348.168 852.12 350.47C852.54 354.52 855.9 357.83 859.73 359.47C863.56 361.11 867.65 361.14 871.52 362.38C876.07 363.84 880.52 365.69 885.07 367.27C887.5 368.12 890.07 369.02 891.82 370.82C894.69 373.69 895.04 378.04 895.73 381.98C896.783 387.979 898.972 393.722 902.18 398.9C903.31 400.73 904.59 402.57 904.89 404.69C905.25 407.26 904.28 410.44 906.35 412.08C907.95 413.36 910.35 412.73 912.15 411.65C913.95 410.57 915.47 409.07 917.5 408.65C919.94 408.13 922.5 409.32 924.3 410.98C925.726 412.277 926.854 413.868 927.606 415.642C928.359 417.417 928.718 419.333 928.66 421.26C928.56 423.65 927.82 426.13 928.66 428.37C929.45 430.44 932.57 431.69 934.04 430.25C934.15 430.503 934.28 430.748 934.43 430.98C935.96 433.32 938.86 434.41 941.64 434.7C943.027 434.922 944.448 434.734 945.73 434.16C946.65 433.663 947.392 432.89 947.85 431.95C946.609 432.454 945.255 432.616 943.93 432.42Z" fill="black"/>
<path d="M943.01 410.42L943.58 410.82C943.913 410.467 944.214 410.085 944.48 409.68C944.02 409.982 943.527 410.23 943.01 410.42Z" fill="black"/>
</g>
<path opacity="0.1" d="M208.26 136.42C208.26 136.42 244.76 134.22 240.46 159.8C240.46 159.8 241.31 164.32 237.22 166.37C237.22 166.37 237.15 164.48 233.47 165.12C232.149 165.344 230.806 165.408 229.47 165.31C227.681 165.192 225.981 164.489 224.63 163.31C224.63 163.31 214.36 159.07 210.37 142.31C210.37 142.31 207.37 138.65 207.54 137.71L213.7 140.34C213.7 140.34 211.59 144.78 213.25 148.48C213.25 148.48 213.45 140.48 214.63 140.69C214.87 140.69 217.83 142.23 217.83 142.23C217.83 142.23 214.21 149.97 216.94 155.6C216.94 155.6 215.94 146.06 218.94 142.79L223.28 145.32C223.28 145.32 219.05 153.32 221.92 159.84C221.92 159.84 221.18 149.84 224.19 145.94L228.12 149C228.12 149 224.12 156.88 226.57 162.29C226.57 162.29 226.89 150.64 228.97 149.76C228.97 149.76 232.41 152.76 232.97 154.04C232.97 154.04 230.24 159.76 231.97 162.78C231.97 162.78 232.97 155.02 233.86 154.99C233.86 154.99 237.28 160.13 237.64 163.65C237.47 160.392 236.453 157.235 234.69 154.49C236.665 154.866 238.486 155.811 239.93 157.21C239.93 157.21 239.4 153.57 233.84 153.21C233.84 153.21 231.01 149.31 230.25 149.08C230.25 149.08 235.78 148.61 239.13 150.08C239.13 150.08 236.18 146.65 229.24 148.21L225.36 145.04C225.36 145.04 232.64 144.04 235.72 145.15C235.72 145.15 232.17 142.15 224.32 144.32L220.09 141.8C220.09 141.8 226.3 140.46 229.99 140.94C229.99 140.94 226.09 138.84 218.85 141.12L215.85 139.76C215.85 139.76 220.4 138.87 221.73 138.76C223.06 138.65 223.13 138.25 223.13 138.25C220.25 137.769 217.294 138.098 214.59 139.2C214.59 139.2 208.15 136.77 208.26 136.42Z" fill="#6274F2"/>
<path opacity="0.1" d="M961.93 101.69C961.93 101.69 998.44 99.49 994.14 125.07C994.14 125.07 994.99 129.59 990.89 131.65C990.89 131.65 990.83 129.75 987.15 130.39C985.829 130.612 984.487 130.679 983.15 130.59C981.359 130.469 979.656 129.767 978.3 128.59C978.3 128.59 968.04 124.35 964.05 107.59C964.05 107.59 961.1 103.93 961.22 102.99L967.38 105.62C967.38 105.62 965.27 110.07 966.93 113.76C966.93 113.76 967.13 105.76 968.31 105.97C968.55 105.97 971.51 107.51 971.51 107.51C971.51 107.51 967.89 115.26 970.62 120.88C970.62 120.88 969.62 111.34 972.62 108.07L976.96 110.6C976.96 110.6 972.73 118.6 975.6 125.13C975.6 125.13 974.86 115.13 977.87 111.22L981.8 114.29C981.8 114.29 977.8 122.17 980.25 127.58C980.25 127.58 980.57 115.93 982.65 115.05C982.65 115.05 986.09 118.05 986.65 119.33C986.65 119.33 983.92 125.05 985.65 128.07C985.65 128.07 986.65 120.3 987.54 120.27C987.54 120.27 990.96 125.41 991.32 128.94C991.137 125.677 990.102 122.519 988.32 119.78C990.295 120.15 992.117 121.092 993.56 122.49C993.56 122.49 993.03 118.86 987.47 118.49C987.47 118.49 984.64 114.59 983.88 114.35C983.88 114.35 989.41 113.89 992.76 115.35C992.76 115.35 989.81 111.92 982.87 113.48L979.03 110.42C979.03 110.42 986.31 109.42 989.39 110.52C989.39 110.52 985.84 107.52 977.99 109.7L973.76 107.17C973.76 107.17 979.96 105.83 983.66 106.32C983.66 106.32 979.76 104.21 972.52 106.49L969.52 105.14C969.52 105.14 974.07 104.24 975.4 104.14C976.73 104.04 976.8 103.63 976.8 103.63C973.92 103.15 970.964 103.478 968.26 104.58C968.26 104.58 961.83 102.1 961.93 101.69Z" fill="#6274F2"/>
<path opacity="0.1" d="M382.44 66.67C382.44 66.67 409.63 91.14 388.39 106.02C388.39 106.02 385.76 109.8 381.39 108.33C381.39 108.33 382.69 106.95 379.65 104.78C378.576 104 377.596 103.097 376.73 102.09C375.55 100.732 374.848 99.0251 374.73 97.23C374.73 97.23 370.54 86.94 379.73 72.33C379.73 72.33 380.27 67.66 381.02 67.08L383.47 73.32C383.47 73.32 378.83 74.94 377.36 78.71C377.36 78.71 383.18 73.25 383.87 74.23C384.02 74.43 385.02 77.59 385.02 77.59C385.02 77.59 377 80.42 374.93 86.34C374.93 86.34 380.99 78.9 385.47 78.79L386.71 83.65C386.71 83.65 378.04 86.25 375.41 92.87C375.41 92.87 382.02 85.33 386.91 84.74L387.48 89.74C387.48 89.74 379.08 92.43 376.92 97.96C376.92 97.96 385.45 89.96 387.54 90.88C387.54 90.88 387.79 95.45 387.27 96.7C387.27 96.7 381.27 98.78 380.32 102.1C380.32 102.1 386.58 97.39 387.2 97.97C387.2 97.97 385.94 104.02 383.68 106.75C385.881 104.343 387.415 101.403 388.13 98.22C389.251 99.8889 389.86 101.85 389.88 103.86C389.88 103.86 392.09 100.93 388.42 96.75C388.42 96.75 389.21 91.99 388.85 91.29C388.85 91.29 393.06 94.9 394.35 98.29C394.35 98.29 394.73 93.78 388.74 89.93L388.28 84.93C388.28 84.93 394.09 89.42 395.47 92.39C395.47 92.39 395.14 87.73 388.05 83.68L386.89 78.9C386.89 78.9 392.2 82.38 394.45 85.36C394.45 85.36 393.21 81.1 386.5 77.54L385.33 74.42C385.33 74.42 389.16 77.03 390.19 77.88C391.22 78.73 391.54 78.52 391.54 78.52C389.862 76.1329 387.552 74.2598 384.87 73.11C384.87 73.11 382.08 66.88 382.44 66.67Z" fill="#6274F2"/>
<path opacity="0.1" d="M762.36 214.75C762.36 214.75 789.55 239.21 768.3 254.1C768.3 254.1 765.68 257.88 761.3 256.4C761.3 256.4 762.61 255.02 759.57 252.85C758.489 252.078 757.508 251.174 756.65 250.16C755.471 248.802 754.768 247.095 754.65 245.3C754.65 245.3 750.47 235.02 759.65 220.4C759.65 220.4 760.18 215.73 760.93 215.15L763.38 221.39C763.38 221.39 758.74 223.01 757.27 226.78C757.27 226.78 763.09 221.33 763.79 222.3C763.93 222.5 764.94 225.66 764.94 225.66C764.94 225.66 756.93 228.51 754.82 234.42C754.82 234.42 760.89 226.99 765.36 226.87L766.6 231.74C766.6 231.74 757.94 234.33 755.3 240.96C755.3 240.96 761.91 233.41 766.8 232.82L767.38 237.77C767.38 237.77 758.97 240.47 756.82 245.99C756.82 245.99 765.34 238.04 767.43 238.91C767.43 238.91 767.69 243.49 767.17 244.74C767.17 244.74 761.17 246.81 760.17 250.13C760.17 250.13 766.43 245.42 767.05 246.01C767.05 246.01 765.79 252.01 763.53 254.78C765.734 252.374 767.272 249.433 767.99 246.25C769.109 247.919 769.714 249.88 769.73 251.89C769.73 251.89 771.95 248.96 768.27 244.78C768.27 244.78 769.07 240.03 768.7 239.32C768.7 239.32 772.91 242.93 774.21 246.32C774.21 246.32 774.58 241.81 768.6 237.96L768.13 232.96C768.13 232.96 773.95 237.44 775.33 240.41C775.33 240.41 775 235.75 767.91 231.71L766.74 226.92C766.74 226.92 772.05 230.41 774.3 233.38C774.3 233.38 773.06 229.12 766.36 225.57L765.21 222.46C765.21 222.46 769.03 225.07 770.07 225.93C771.11 226.79 771.41 226.57 771.41 226.57C769.731 224.181 767.422 222.305 764.74 221.15C764.74 221.15 761.99 214.95 762.36 214.75Z" fill="#6274F2"/>
<path opacity="0.1" d="M1057.58 69.48C1057.58 69.48 1084.76 93.94 1063.52 108.83C1063.52 108.83 1060.9 112.61 1056.52 111.13C1056.52 111.13 1057.82 109.75 1054.78 107.58C1053.7 106.802 1052.72 105.899 1051.86 104.89C1050.68 103.533 1049.98 101.826 1049.86 100.03C1049.86 100.03 1045.67 89.75 1054.86 75.13C1054.86 75.13 1055.4 70.46 1056.15 69.89L1058.6 76.12C1058.6 76.12 1053.96 77.74 1052.49 81.51C1052.49 81.51 1058.31 76.06 1059.01 77.03C1059.15 77.23 1060.16 80.39 1060.16 80.39C1060.16 80.39 1052.1 83.25 1050.01 89.14C1050.01 89.14 1056.07 81.71 1060.55 81.59L1061.79 86.46C1061.79 86.46 1053.12 89.06 1050.49 95.68C1050.49 95.68 1057.1 88.13 1061.99 87.54L1062.56 92.49C1062.56 92.49 1054.16 95.19 1052.01 100.71C1052.01 100.71 1060.53 92.76 1062.62 93.63C1062.62 93.63 1062.87 98.21 1062.35 99.46C1062.35 99.46 1056.35 101.53 1055.35 104.86C1055.35 104.86 1061.61 100.15 1062.23 100.73C1062.23 100.73 1060.97 106.78 1058.71 109.5C1060.91 107.095 1062.45 104.153 1063.16 100.97C1064.28 102.64 1064.89 104.6 1064.91 106.61C1064.91 106.61 1067.12 103.68 1063.45 99.5C1063.45 99.5 1064.24 94.75 1063.88 94.04C1063.88 94.04 1068.09 97.65 1069.38 101.04C1069.38 101.04 1069.76 96.53 1063.77 92.67L1063.31 87.67C1063.31 87.67 1069.12 92.15 1070.5 95.12C1070.5 95.12 1070.17 90.46 1063.09 86.42L1061.92 81.64C1061.92 81.64 1067.23 85.12 1069.48 88.09C1069.48 88.09 1068.24 83.84 1061.48 80.28L1060.33 77.17C1060.33 77.17 1064.16 79.79 1065.19 80.64C1066.22 81.49 1066.54 81.28 1066.54 81.28C1064.86 78.8914 1062.55 77.0152 1059.87 75.86C1059.87 75.86 1057.21 69.68 1057.58 69.48Z" fill="#6274F2"/>
<path opacity="0.1" d="M344.85 177.77C344.85 177.77 342.23 214.25 317.43 206.62C317.43 206.62 312.84 206.88 311.34 202.54C311.34 202.54 313.23 202.73 313.08 199C313.029 197.658 313.139 196.315 313.41 195C313.765 193.242 314.685 191.647 316.03 190.46C316.03 190.46 321.58 180.84 338.74 179.09C338.74 179.09 342.74 176.64 343.67 176.88L340.25 182.64C340.25 182.64 336.12 179.97 332.25 181.13C332.25 181.13 340.13 182.37 339.79 183.52C339.72 183.76 337.79 186.52 337.79 186.52C337.79 186.52 330.59 181.92 324.66 183.89C324.66 183.89 334.25 184.11 337.09 187.57L334.01 191.57C334.01 191.57 326.64 186.32 319.79 188.31C319.79 188.31 329.79 188.89 333.28 192.39L329.72 195.88C329.72 195.88 322.43 190.88 316.72 192.6C316.72 192.6 328.23 194.44 328.83 196.6C328.83 196.6 325.37 199.6 324.06 199.96C324.06 199.96 318.75 196.51 315.54 197.79C315.54 197.79 323.09 199.84 323.02 200.68C323.02 200.68 317.47 203.4 313.93 203.29C317.183 203.556 320.448 202.963 323.4 201.57C322.769 203.478 321.594 205.161 320.02 206.41C320.02 206.41 323.69 206.36 324.74 200.9C324.74 200.9 328.97 198.6 329.31 197.9C329.31 197.9 329.04 203.44 327.13 206.57C327.13 206.57 330.92 204.1 330.28 197.01L333.93 193.58C333.93 193.58 333.93 200.93 332.47 203.84C332.47 203.84 335.94 200.72 334.78 192.64L337.84 188.78C337.84 188.78 338.35 195.11 337.39 198.71C337.39 198.71 339.98 195.12 338.68 187.65L340.42 184.83C340.42 184.83 340.71 189.45 340.67 190.83C340.63 192.21 340.99 192.29 340.99 192.29C341.842 189.498 341.904 186.525 341.17 183.7C341.17 183.7 344.46 177.61 344.85 177.77Z" fill="#6274F2"/>
<path opacity="0.1" d="M764.76 136.81C764.76 136.81 762.14 173.29 737.35 165.66C737.35 165.66 732.75 165.91 731.26 161.58C731.26 161.58 733.14 161.76 732.99 158.03C732.944 156.688 733.055 155.346 733.32 154.03C733.675 152.272 734.595 150.677 735.94 149.49C735.94 149.49 741.5 139.87 758.65 138.12C758.65 138.12 762.65 135.68 763.58 135.91L760.16 141.68C760.16 141.68 756.03 139.01 752.16 140.16C752.16 140.16 760.04 141.41 759.7 142.56C759.63 142.79 757.76 145.56 757.76 145.56C757.76 145.56 750.56 140.95 744.62 142.92C744.62 142.92 754.21 143.14 757.05 146.61L753.97 150.61C753.97 150.61 746.6 145.36 739.76 147.35C739.76 147.35 749.76 147.94 753.24 151.43L749.69 154.93C749.69 154.93 742.4 149.93 736.69 151.64C736.69 151.64 748.2 153.49 748.8 155.64C748.8 155.64 745.34 158.64 744.04 159.01C744.04 159.01 738.72 155.56 735.51 156.83C735.51 156.83 743.07 158.88 742.99 159.73C742.99 159.73 737.44 162.45 733.9 162.34C737.153 162.601 740.417 162.008 743.37 160.62C742.737 162.527 741.562 164.209 739.99 165.46C739.99 165.46 743.66 165.46 744.71 159.94C744.71 159.94 748.95 157.65 749.28 156.94C749.28 156.94 749.01 162.48 747.1 165.6C747.1 165.6 750.89 163.13 750.25 156.04L753.9 152.61C753.9 152.61 753.9 159.96 752.44 162.87C752.44 162.87 755.91 159.75 754.75 151.67L757.81 147.82C757.81 147.82 758.32 154.14 757.36 157.74C757.36 157.74 759.96 154.15 758.65 146.68L760.39 143.86C760.39 143.86 760.68 148.49 760.64 149.86C760.6 151.23 760.96 151.32 760.96 151.32C761.818 148.529 761.88 145.554 761.14 142.73C761.14 142.73 764.37 136.64 764.76 136.81Z" fill="#6274F2"/>
<path opacity="0.1" d="M1005.93 0.870009C1005.93 0.870009 1003.32 37.35 978.52 29.72C978.52 29.72 973.93 29.97 972.43 25.64C972.43 25.64 974.32 25.82 974.16 22.09C974.112 20.7479 974.226 19.4048 974.5 18.09C974.855 16.3316 975.775 14.7373 977.12 13.55C977.12 13.55 982.67 3.93001 999.82 2.18001C999.82 2.18001 1003.82 -0.259993 1004.75 -0.0299927L1001.34 5.74001C1001.34 5.74001 997.21 3.07001 993.34 4.22001C993.34 4.22001 1001.22 5.47001 1000.88 6.62001C1000.81 6.85001 998.88 9.62001 998.88 9.62001C998.88 9.62001 991.68 5.01001 985.74 6.98001C985.74 6.98001 995.33 7.20001 998.17 10.67L995.1 14.67C995.1 14.67 987.8 9.42001 980.93 11.42C980.93 11.42 990.93 12.01 994.41 15.5L990.86 19C990.86 19 983.57 14 977.86 15.71C977.86 15.71 989.36 17.56 989.96 19.71C989.96 19.71 986.5 22.71 985.2 23.08C985.2 23.08 979.89 19.63 976.67 20.9C976.67 20.9 984.23 22.95 984.15 23.8C984.15 23.8 978.6 26.52 975.06 26.41C978.313 26.6705 981.577 26.0776 984.53 24.69C983.901 26.5994 982.726 28.2822 981.15 29.53C981.15 29.53 984.83 29.53 985.87 24.01C985.87 24.01 990.11 21.72 990.44 21.01C990.44 21.01 990.18 26.55 988.26 29.67C988.26 29.67 992.05 27.2 991.42 20.11L995.07 16.68C995.07 16.68 995.07 24.03 993.6 26.94C993.6 26.94 997.08 23.82 995.92 15.74L998.98 11.89C998.98 11.89 999.49 18.21 998.52 21.81C998.52 21.81 1001.12 18.22 999.81 10.75L1001.55 7.93001C1001.55 7.93001 1001.84 12.56 1001.81 13.93C1001.78 15.3 1002.13 15.39 1002.13 15.39C1002.98 12.5982 1003.04 9.62506 1002.31 6.80001C1002.31 6.80001 1005.59 0.700009 1005.93 0.870009Z" fill="#6274F2"/>
<path opacity="0.1" d="M773.02 597.25L808.92 598.78" stroke="black" stroke-miterlimit="10"/>
<path opacity="0.1" d="M767.18 603.66L803.08 605.19" stroke="black" stroke-miterlimit="10"/>
<path opacity="0.1" d="M761.34 610.06L797.24 611.59" stroke="black" stroke-miterlimit="10"/>
<path opacity="0.1" d="M755.49 616.47L791.39 618" stroke="black" stroke-miterlimit="10"/>
<path opacity="0.1" d="M749.65 622.87L785.55 624.41" stroke="black" stroke-miterlimit="10"/>
<path opacity="0.1" d="M743.81 629.28L779.71 630.81" stroke="black" stroke-miterlimit="10"/>
<path opacity="0.1" d="M737.96 635.69L773.86 637.22" stroke="black" stroke-miterlimit="10"/>
<path opacity="0.1" d="M732.12 642.09L768.02 643.62" stroke="black" stroke-miterlimit="10"/>
</g>
<defs>
<linearGradient id="paint0_linear_6_2" x1="522.57" y1="819.2" x2="522.57" y2="86.67" gradientUnits="userSpaceOnUse">
<stop stop-color="#808080" stop-opacity="0.25"/>
<stop offset="0.54" stop-color="#808080" stop-opacity="0.12"/>
<stop offset="1" stop-color="#808080" stop-opacity="0.1"/>
</linearGradient>
<clipPath id="clip0_6_2">
<rect width="1083.87" height="826.84" fill="white"/>
</clipPath>
</defs>
</svg>
